<svg width="24" height="25" viewBox="0 0 24 25" fill="none" xmlns="http://www.w3.org/2000/svg">
<path d="M9 12.3062L11.9888 15.5M11.9888 15.5L15 12.3299M11.9888 15.5L11.9888 3.5M16.5 9.5C17.8978 9.5 18.5967 9.5 19.148 9.72836C19.8831 10.0328 20.4672 10.6169 20.7716 11.3519C21 11.9033 21 12.6022 21 14V15.5C21 18.3284 21 19.7426 20.1213 20.6213C19.2426 21.5 17.8284 21.5 15 21.5H9C6.17157 21.5 4.75736 21.5 3.87868 20.6213C3 19.7426 3 18.3284 3 15.5V14C3 12.6022 3 11.9033 3.22836 11.3519C3.53284 10.6169 4.11687 10.0328 4.85195 9.72836C5.40326 9.5 6.10218 9.5 7.5 9.5" stroke="#F6F0FF" stroke-linecap="round" stroke-linejoin="round"/>
</svg>
